<svg xmlns="http://www.w3.org/2000/svg" data-name="Layer 1" viewBox="0 0 100 125" x="0px" y="0px"><title>118all</title><path d="M7.33,14.67h-6V76.2H14.45a12.11,12.11,0,0,0,23.47,0H67.14a12.11,12.11,0,0,0,23.47,0h8.06V46.86L88.58,29.48H64.78V14.67ZM26.18,79.33a6.13,6.13,0,1,1,6.13-6.12A6.13,6.13,0,0,1,26.18,79.33Zm0-18.25A12.14,12.14,0,0,0,14.45,70.2H7.33V20.67H58.78V70.2H37.91A12.14,12.14,0,0,0,26.18,61.08ZM78.87,79.33A6.13,6.13,0,1,1,85,73.2,6.13,6.13,0,0,1,78.87,79.33ZM90.61,70.2a12.11,12.11,0,0,0-23.47,0H64.78V50.79H92.67V70.2ZM85.12,35.48l5.41,9.32H64.78V35.48Z"/><rect x="27" y="28.33" width="26" height="6"/><rect x="13.53" y="39.33" width="39.47" height="6"/><rect x="36.53" y="50.33" width="16.47" height="6"/><text x="0" y="115" fill="#000000" font-size="5px" font-weight="bold" font-family="'Helvetica Neue', Helvetica, Arial-Unicode, Arial, Sans-serif">Created by Shastry</text><text x="0" y="120" fill="#000000" font-size="5px" font-weight="bold" font-family="'Helvetica Neue', Helvetica, Arial-Unicode, Arial, Sans-serif">from the Noun Project</text></svg>